<svg width="631" height="922" viewBox="0 0 631 922" fill="none" xmlns="http://www.w3.org/2000/svg">
<g filter="url(#filter0_d_2_60)">
<path d="M179 778V758.5L191.5 738L248 728L309 720.5L352 728L396.5 738L432 758.5L402.5 821L352 853L309 872L218 821L179 778Z" fill="#783200"/>
<path d="M179 778V758.5L191.5 738L248 728L309 720.5L352 728L396.5 738L432 758.5L402.5 821L352 853L309 872L218 821L179 778Z" fill="black" fill-opacity="0.2"/>
<path d="M179 778V758.5L191.5 738L248 728L309 720.5L352 728L396.5 738L432 758.5L402.5 821L352 853L309 872L218 821L179 778Z" stroke="black" stroke-width="5"/>
</g>
<g filter="url(#filter1_d_2_60)">
<path d="M301 846.5L263 805.5L255 757.5V732L301 718.5L353.5 732V759V786L347.875 805.5C341 826 323.2 850.5 324 846.5C324.8 842.5 324 846.5 301 846.5Z" fill="#783200"/>
<path d="M263 805.5L301 846.5C324 846.5 324.8 842.5 324 846.5C323.2 850.5 341 826 347.875 805.5M263 805.5L255 757.5M263 805.5L309.875 779.5L347.875 805.5M347.875 805.5L353.5 786V759M255 757.5V732L301 718.5L353.5 732V759M255 757.5L308 741L353.5 759" stroke="black" stroke-width="5"/>
</g>
<g filter="url(#filter2_d_2_60)">
<path d="M185.5 815.999L152.5 843.499L158.5 804.499L176.922 772.999L223 824.999L274.5 852.999L312.5 869.999L346 852.999L398.5 815.999L431 756.499L456.5 791.499L466 837.499L422 804.499L431 862.999L387 843.499L373.5 862.999V907.999L346 852.999L312.5 869.999L274.5 852.999L255 912.999L248 869.999L233.5 843.499L185.5 878.499V815.999Z" fill="#783200"/>
<path d="M176.922 756.499V772.999M274.5 852.999L255 912.999L248 869.999L233.5 843.499L185.5 878.499V815.999L152.5 843.499L158.5 804.499L176.922 772.999M274.5 852.999L223 824.999L176.922 772.999M274.5 852.999L312.5 869.999L346 852.999M346 852.999L373.5 907.999V862.999L387 843.499L431 862.999L422 804.499L466 837.499L456.5 791.499L431 756.499L398.5 815.999L346 852.999Z" stroke="black" stroke-width="5"/>
</g>
<g filter="url(#filter3_d_2_60)">
<path d="M483.5 721.999L508 796.999L483.5 770.999L467.5 760.499H431L401.5 740.999L352.5 729.999L306 721.999L250 729.999L191.5 740.999L172 760.499L141.5 770.999L114.5 796.999L126 740.999L136.5 715.499L141.5 702.999L182.5 683.999L245 675.999L299 658.499L352.5 675.999L476 709.999L483.5 721.999Z" fill="#783200"/>
<path d="M245 675.999L299 658.499L352.5 675.999M245 675.999L182.5 683.999L141.5 702.999L136.5 715.499L126 740.999L114.5 796.999L141.5 770.999L172 760.499L191.5 740.999L250 729.999M245 675.999L235.5 709.999L250 729.999M352.5 675.999L476 709.999L483.5 721.999L508 796.999L483.5 770.999L467.5 760.499H431L401.5 740.999L352.5 729.999M352.5 675.999L363 702.999L352.5 729.999M352.5 729.999L306 721.999L250 729.999" stroke="black" stroke-width="5"/>
</g>
<g filter="url(#filter4_d_2_60)">
<path d="M499.5 651L551 751.5L522 721.5L467 701.5L406.5 694L353.5 676.5L305.5 663L249.5 671L191 682L165 687.5L131 701.5L99.4999 738L108 671L118 651L136 632.5L182 625L244.5 617L305.5 603L362.5 617L475.5 632.5L499.5 651Z" fill="#783200"/>
<path d="M244.5 617L305.5 603L362.5 617M244.5 617L182 625L136 632.5L118 651L108 671L99.4999 738L131 701.5L165 687.5L191 682L249.5 671M244.5 617L235 651L249.5 671M362.5 617L475.5 632.5L499.5 651L551 751.5L522 721.5L467 701.5L406.5 694L353.5 676.5M362.5 617V644L353.5 676.5M353.5 676.5L305.5 663L249.5 671" stroke="black" stroke-width="5"/>
</g>
<g filter="url(#filter5_d_2_60)">
<path d="M514 579.5L558 668.5L534.5 648L475 627.5L359.5 611L305 603L249 611L190.5 622L145.5 627.5L107.5 643L72.4999 692V643L78.9999 603L128.5 572.5L181.5 565L231.5 557L305 543L359.5 557L475 572.5L514 579.5Z" fill="#783200"/>
<path d="M231.5 557L305 543L359.5 557M231.5 557L181.5 565L128.5 572.5L78.9999 603L72.4999 643V692L107.5 643L145.5 627.5L190.5 622L249 611M231.5 557L234.5 591L249 611M359.5 557L475 572.5L514 579.5L558 668.5L534.5 648L475 627.5L359.5 611M359.5 557L370.5 584.5L359.5 611M359.5 611L305 603L249 611" stroke="black" stroke-width="5"/>
</g>
<g filter="url(#filter6_d_2_60)">
<path d="M527.5 519L571.5 616.5L534.5 575L467 569L364.5 554L306 543L245 559.5L175.499 569L87.9995 591.5L48.9995 654L62.4995 580.5L82.9995 543L122.499 504.5L175.499 497L225.5 489L299 475L373.5 489L474.5 511.5L527.5 519Z" fill="#783200"/>
<path d="M225.5 489L299 475L373.5 489M225.5 489L175.499 497L122.499 504.5L82.9995 543L62.4995 580.5L48.9995 654L87.9995 591.5L175.499 569L245 559.5M225.5 489L228.5 523L245 559.5M373.5 489L474.5 511.5L527.5 519L571.5 616.5L534.5 575L467 569L364.5 554M373.5 489V519L364.5 554M364.5 554L306 543L245 559.5" stroke="black" stroke-width="5"/>
</g>
<g filter="url(#filter7_d_2_60)">
<path d="M524.499 434.5L585.499 548L524.499 504H457.499L368.499 490.5L296.999 475L228.499 490.5L172.499 497L119.499 504L39.9992 573.5L53.9992 490.5L69.4992 453.5L119.499 440.5L172.499 427L222.499 404.5H296.999L361.499 412.5H379.499L471.499 427L524.499 434.5Z" fill="#783200"/>
<path d="M222.499 404.5H296.999L361.499 412.5H379.499M222.499 404.5L172.499 427L119.499 440.5L69.4992 453.5L53.9992 490.5L39.9992 573.5L119.499 504L172.499 497L228.499 490.5M222.499 404.5L213.999 447.5L228.499 490.5M379.499 412.5L471.499 427L524.499 434.5L585.499 548L524.499 504H457.499L368.499 490.5M379.499 412.5L384.999 458.5L368.499 490.5M368.499 490.5L296.999 475L228.499 490.5" stroke="black" stroke-width="5"/>
</g>
<g filter="url(#filter8_d_2_60)">
<path d="M528.5 361.499L584 452.499L528.5 430.999L453 423.999L376.5 417.499L302 403.499L217.5 411.179L176.5 423.999L123.5 435.999L67 452.499L32.9999 474.999L57.9999 417.499L67 392.999L123.5 367.499L217.5 355.179L302 348.999H384L475.5 353.999L528.5 361.499Z" fill="#783200"/>
<path d="M217.5 355.179V411.179M217.5 355.179L123.5 367.499L67 392.999L57.9999 417.499L32.9999 474.999L67 452.499L123.5 435.999L176.5 423.999L217.5 411.179M217.5 355.179L302 348.999H384M384 348.999L376.5 417.499M384 348.999L475.5 353.999L528.5 361.499L584 452.499L528.5 430.999L453 423.999L376.5 417.499M376.5 417.499L302 403.499L217.5 411.179" stroke="black" stroke-width="5"/>
</g>
<g filter="url(#filter9_d_2_60)">
<path d="M32.9998 409.5L63.4998 312L119 297L222 287.5L298 282.5L379 287.5H468L513 297L556 371.5L489.5 353H379H222L119 365.5L32.9998 409.5Z" fill="#783200"/>
<path d="M222 287.5L298 282.5L379 287.5M222 287.5L119 297L63.4998 312L32.9998 409.5L119 365.5L222 353M222 287.5L209 319.5L222 353M379 287.5H468L513 297L556 371.5L489.5 353H379M379 287.5L385 319.5L379 353M379 353H222" stroke="black" stroke-width="5"/>
</g>
<g filter="url(#filter10_d_2_60)">
<path d="M28.4999 416.5L6.99994 704.5V416.5L16.4999 285.5L39 185.5L76 114.5L154.5 42.0003L300 3.00024L423 34.5003L499.5 95.0003L564 216L597 398L624.5 704.5L577.5 398L554 333.5L521 295L290 285.5L63.5 310L28.4999 416.5Z" fill="#783200"/>
<path d="M28.4999 416.5L6.99994 704.5V416.5L16.4999 285.5L39 185.5L76 114.5L154.5 42.0003L300 3.00024L423 34.5003L499.5 95.0003L564 216L597 398L624.5 704.5L577.5 398L554 333.5L521 295L290 285.5L63.5 310L28.4999 416.5Z" stroke="black" stroke-width="5"/>
</g>
<g filter="url(#filter11_d_2_60)">
<path d="M83.0003 207C68.5001 246.5 61.5001 267 52.5001 297L118 267L168 273.5L217 283.5H383L413.5 267H457.5L493.5 273.5L535.501 283.5L512 207L484.5 148.5L445.5 100.5L373.5 64.5002L288 52.0002L217 69.5003L168 100.5L118 139L83.0003 207Z" fill="#461D00" fill-opacity="0.55" shape-rendering="crispEdges"/>
<path d="M83.0003 207C68.5001 246.5 61.5001 267 52.5001 297L118 267L168 273.5L217 283.5H383L413.5 267H457.5L493.5 273.5L535.501 283.5L512 207L484.5 148.5L445.5 100.5L373.5 64.5002L288 52.0002L217 69.5003L168 100.5L118 139L83.0003 207Z" stroke="black" stroke-width="5" shape-rendering="crispEdges"/>
</g>
<g filter="url(#filter12_d_2_60)">
<path d="M218 225.001V282.501H380V213.001L370.5 166.001L349 125L293 105.5L241.5 125L218 179.001V225.001Z" fill="#B64C00" fill-opacity="0.78" shape-rendering="crispEdges"/>
<path d="M218 225.001V282.501H380V213.001L370.5 166.001L349 125L293 105.5L241.5 125L218 179.001V225.001Z" stroke="black" stroke-width="5" shape-rendering="crispEdges"/>
</g>
<g filter="url(#filter13_d_2_60)">
<ellipse cx="180" cy="164.5" rx="27" ry="10.5" fill="#652A00"/>
</g>
<g filter="url(#filter14_d_2_60)">
<ellipse cx="426" cy="164.5" rx="27" ry="10.5" fill="#652A00"/>
</g>
<defs>
<filter id="filter0_d_2_60" x="172.5" y="717.973" width="266.743" height="164.818" filterUnits="userSpaceOnUse" color-interpolation-filters="sRGB">
<feFlood flood-opacity="0" result="BackgroundImageFix"/>
<feColorMatrix in="SourceAlpha" type="matrix" values="0 0 0 0 0 0 0 0 0 0 0 0 0 0 0 0 0 0 127 0" result="hardAlpha"/>
<feOffset dy="4"/>
<feGaussianBlur stdDeviation="2"/>
<feComposite in2="hardAlpha" operator="out"/>
<feColorMatrix type="matrix" values="0 0 0 0 0 0 0 0 0 0 0 0 0 0 0 0 0 0 0.25 0"/>
<feBlend mode="normal" in2="BackgroundImageFix" result="effect1_dropShadow_2_60"/>
<feBlend mode="normal" in="SourceGraphic" in2="effect1_dropShadow_2_60" result="shape"/>
</filter>
<filter id="filter1_d_2_60" x="248.5" y="715.907" width="111.5" height="141.526" filterUnits="userSpaceOnUse" color-interpolation-filters="sRGB">
<feFlood flood-opacity="0" result="BackgroundImageFix"/>
<feColorMatrix in="SourceAlpha" type="matrix" values="0 0 0 0 0 0 0 0 0 0 0 0 0 0 0 0 0 0 127 0" result="hardAlpha"/>
<feOffset dy="4"/>
<feGaussianBlur stdDeviation="2"/>
<feComposite in2="hardAlpha" operator="out"/>
<feColorMatrix type="matrix" values="0 0 0 0 0 0 0 0 0 0 0 0 0 0 0 0 0 0 0.25 0"/>
<feBlend mode="normal" in2="BackgroundImageFix" result="effect1_dropShadow_2_60"/>
<feBlend mode="normal" in="SourceGraphic" in2="effect1_dropShadow_2_60" result="shape"/>
</filter>
<filter id="filter2_d_2_60" x="145.024" y="751.838" width="328.76" height="169.934" filterUnits="userSpaceOnUse" color-interpolation-filters="sRGB">
<feFlood flood-opacity="0" result="BackgroundImageFix"/>
<feColorMatrix in="SourceAlpha" type="matrix" values="0 0 0 0 0 0 0 0 0 0 0 0 0 0 0 0 0 0 127 0" result="hardAlpha"/>
<feOffset dy="4"/>
<feGaussianBlur stdDeviation="2"/>
<feComposite in2="hardAlpha" operator="out"/>
<feColorMatrix type="matrix" values="0 0 0 0 0 0 0 0 0 0 0 0 0 0 0 0 0 0 0.25 0"/>
<feBlend mode="normal" in2="BackgroundImageFix" result="effect1_dropShadow_2_60"/>
<feBlend mode="normal" in="SourceGraphic" in2="effect1_dropShadow_2_60" result="shape"/>
</filter>
<filter id="filter3_d_2_60" x="106.43" y="655.87" width="407.946" height="156.519" filterUnits="userSpaceOnUse" color-interpolation-filters="sRGB">
<feFlood flood-opacity="0" result="BackgroundImageFix"/>
<feColorMatrix in="SourceAlpha" type="matrix" values="0 0 0 0 0 0 0 0 0 0 0 0 0 0 0 0 0 0 127 0" result="hardAlpha"/>
<feOffset dy="4"/>
<feGaussianBlur stdDeviation="2"/>
<feComposite in2="hardAlpha" operator="out"/>
<feColorMatrix type="matrix" values="0 0 0 0 0 0 0 0 0 0 0 0 0 0 0 0 0 0 0.25 0"/>
<feBlend mode="normal" in2="BackgroundImageFix" result="effect1_dropShadow_2_60"/>
<feBlend mode="normal" in="SourceGraphic" in2="effect1_dropShadow_2_60" result="shape"/>
</filter>
<filter id="filter4_d_2_60" x="91.9765" y="600.43" width="465.248" height="160.807" filterUnits="userSpaceOnUse" color-interpolation-filters="sRGB">
<feFlood flood-opacity="0" result="BackgroundImageFix"/>
<feColorMatrix in="SourceAlpha" type="matrix" values="0 0 0 0 0 0 0 0 0 0 0 0 0 0 0 0 0 0 127 0" result="hardAlpha"/>
<feOffset dy="4"/>
<feGaussianBlur stdDeviation="2"/>
<feComposite in2="hardAlpha" operator="out"/>
<feColorMatrix type="matrix" values="0 0 0 0 0 0 0 0 0 0 0 0 0 0 0 0 0 0 0.25 0"/>
<feBlend mode="normal" in2="BackgroundImageFix" result="effect1_dropShadow_2_60"/>
<feBlend mode="normal" in="SourceGraphic" in2="effect1_dropShadow_2_60" result="shape"/>
</filter>
<filter id="filter5_d_2_60" x="65.9999" y="540.439" width="498.241" height="167.362" filterUnits="userSpaceOnUse" color-interpolation-filters="sRGB">
<feFlood flood-opacity="0" result="BackgroundImageFix"/>
<feColorMatrix in="SourceAlpha" type="matrix" values="0 0 0 0 0 0 0 0 0 0 0 0 0 0 0 0 0 0 127 0" result="hardAlpha"/>
<feOffset dy="4"/>
<feGaussianBlur stdDeviation="2"/>
<feComposite in2="hardAlpha" operator="out"/>
<feColorMatrix type="matrix" values="0 0 0 0 0 0 0 0 0 0 0 0 0 0 0 0 0 0 0.25 0"/>
<feBlend mode="normal" in2="BackgroundImageFix" result="effect1_dropShadow_2_60"/>
<feBlend mode="normal" in="SourceGraphic" in2="effect1_dropShadow_2_60" result="shape"/>
</filter>
<filter id="filter6_d_2_60" x="42.5406" y="472.456" width="535.238" height="190.868" filterUnits="userSpaceOnUse" color-interpolation-filters="sRGB">
<feFlood flood-opacity="0" result="BackgroundImageFix"/>
<feColorMatrix in="SourceAlpha" type="matrix" values="0 0 0 0 0 0 0 0 0 0 0 0 0 0 0 0 0 0 127 0" result="hardAlpha"/>
<feOffset dy="4"/>
<feGaussianBlur stdDeviation="2"/>
<feComposite in2="hardAlpha" operator="out"/>
<feColorMatrix type="matrix" values="0 0 0 0 0 0 0 0 0 0 0 0 0 0 0 0 0 0 0.25 0"/>
<feBlend mode="normal" in2="BackgroundImageFix" result="effect1_dropShadow_2_60"/>
<feBlend mode="normal" in="SourceGraphic" in2="effect1_dropShadow_2_60" result="shape"/>
</filter>
<filter id="filter7_d_2_60" x="32.3684" y="402" width="559.333" height="185.995" filterUnits="userSpaceOnUse" color-interpolation-filters="sRGB">
<feFlood flood-opacity="0" result="BackgroundImageFix"/>
<feColorMatrix in="SourceAlpha" type="matrix" values="0 0 0 0 0 0 0 0 0 0 0 0 0 0 0 0 0 0 127 0" result="hardAlpha"/>
<feOffset dy="4"/>
<feGaussianBlur stdDeviation="2"/>
<feComposite in2="hardAlpha" operator="out"/>
<feColorMatrix type="matrix" values="0 0 0 0 0 0 0 0 0 0 0 0 0 0 0 0 0 0 0.25 0"/>
<feBlend mode="normal" in2="BackgroundImageFix" result="effect1_dropShadow_2_60"/>
<feBlend mode="normal" in="SourceGraphic" in2="effect1_dropShadow_2_60" result="shape"/>
</filter>
<filter id="filter8_d_2_60" x="23.3428" y="346.499" width="570.632" height="143.242" filterUnits="userSpaceOnUse" color-interpolation-filters="sRGB">
<feFlood flood-opacity="0" result="BackgroundImageFix"/>
<feColorMatrix in="SourceAlpha" type="matrix" values="0 0 0 0 0 0 0 0 0 0 0 0 0 0 0 0 0 0 127 0" result="hardAlpha"/>
<feOffset dy="4"/>
<feGaussianBlur stdDeviation="2"/>
<feComposite in2="hardAlpha" operator="out"/>
<feColorMatrix type="matrix" values="0 0 0 0 0 0 0 0 0 0 0 0 0 0 0 0 0 0 0.25 0"/>
<feBlend mode="normal" in2="BackgroundImageFix" result="effect1_dropShadow_2_60"/>
<feBlend mode="normal" in="SourceGraphic" in2="effect1_dropShadow_2_60" result="shape"/>
</filter>
<filter id="filter9_d_2_60" x="24.8354" y="279.995" width="540.388" height="142.444" filterUnits="userSpaceOnUse" color-interpolation-filters="sRGB">
<feFlood flood-opacity="0" result="BackgroundImageFix"/>
<feColorMatrix in="SourceAlpha" type="matrix" values="0 0 0 0 0 0 0 0 0 0 0 0 0 0 0 0 0 0 127 0" result="hardAlpha"/>
<feOffset dy="4"/>
<feGaussianBlur stdDeviation="2"/>
<feComposite in2="hardAlpha" operator="out"/>
<feColorMatrix type="matrix" values="0 0 0 0 0 0 0 0 0 0 0 0 0 0 0 0 0 0 0.25 0"/>
<feBlend mode="normal" in2="BackgroundImageFix" result="effect1_dropShadow_2_60"/>
<feBlend mode="normal" in="SourceGraphic" in2="effect1_dropShadow_2_60" result="shape"/>
</filter>
<filter id="filter10_d_2_60" x="0.499939" y="0.415894" width="630.49" height="712.464" filterUnits="userSpaceOnUse" color-interpolation-filters="sRGB">
<feFlood flood-opacity="0" result="BackgroundImageFix"/>
<feColorMatrix in="SourceAlpha" type="matrix" values="0 0 0 0 0 0 0 0 0 0 0 0 0 0 0 0 0 0 127 0" result="hardAlpha"/>
<feOffset dy="4"/>
<feGaussianBlur stdDeviation="2"/>
<feComposite in2="hardAlpha" operator="out"/>
<feColorMatrix type="matrix" values="0 0 0 0 0 0 0 0 0 0 0 0 0 0 0 0 0 0 0.25 0"/>
<feBlend mode="normal" in2="BackgroundImageFix" result="effect1_dropShadow_2_60"/>
<feBlend mode="normal" in="SourceGraphic" in2="effect1_dropShadow_2_60" result="shape"/>
</filter>
<filter id="filter11_d_2_60" x="44.5179" y="49.4557" width="498.656" height="260.118" filterUnits="userSpaceOnUse" color-interpolation-filters="sRGB">
<feFlood flood-opacity="0" result="BackgroundImageFix"/>
<feColorMatrix in="SourceAlpha" type="matrix" values="0 0 0 0 0 0 0 0 0 0 0 0 0 0 0 0 0 0 127 0" result="hardAlpha"/>
<feOffset dy="4"/>
<feGaussianBlur stdDeviation="2"/>
<feComposite in2="hardAlpha" operator="out"/>
<feColorMatrix type="matrix" values="0 0 0 0 0 0 0 0 0 0 0 0 0 0 0 0 0 0 0.25 0"/>
<feBlend mode="normal" in2="BackgroundImageFix" result="effect1_dropShadow_2_60"/>
<feBlend mode="normal" in="SourceGraphic" in2="effect1_dropShadow_2_60" result="shape"/>
</filter>
<filter id="filter12_d_2_60" x="211.5" y="102.841" width="175" height="190.16" filterUnits="userSpaceOnUse" color-interpolation-filters="sRGB">
<feFlood flood-opacity="0" result="BackgroundImageFix"/>
<feColorMatrix in="SourceAlpha" type="matrix" values="0 0 0 0 0 0 0 0 0 0 0 0 0 0 0 0 0 0 127 0" result="hardAlpha"/>
<feOffset dy="4"/>
<feGaussianBlur stdDeviation="2"/>
<feComposite in2="hardAlpha" operator="out"/>
<feColorMatrix type="matrix" values="0 0 0 0 0 0 0 0 0 0 0 0 0 0 0 0 0 0 0.25 0"/>
<feBlend mode="normal" in2="BackgroundImageFix" result="effect1_dropShadow_2_60"/>
<feBlend mode="normal" in="SourceGraphic" in2="effect1_dropShadow_2_60" result="shape"/>
</filter>
<filter id="filter13_d_2_60" x="149" y="154" width="62" height="29" filterUnits="userSpaceOnUse" color-interpolation-filters="sRGB">
<feFlood flood-opacity="0" result="BackgroundImageFix"/>
<feColorMatrix in="SourceAlpha" type="matrix" values="0 0 0 0 0 0 0 0 0 0 0 0 0 0 0 0 0 0 127 0" result="hardAlpha"/>
<feOffset dy="4"/>
<feGaussianBlur stdDeviation="2"/>
<feComposite in2="hardAlpha" operator="out"/>
<feColorMatrix type="matrix" values="0 0 0 0 0 0 0 0 0 0 0 0 0 0 0 0 0 0 0.25 0"/>
<feBlend mode="normal" in2="BackgroundImageFix" result="effect1_dropShadow_2_60"/>
<feBlend mode="normal" in="SourceGraphic" in2="effect1_dropShadow_2_60" result="shape"/>
</filter>
<filter id="filter14_d_2_60" x="395" y="154" width="62" height="29" filterUnits="userSpaceOnUse" color-interpolation-filters="sRGB">
<feFlood flood-opacity="0" result="BackgroundImageFix"/>
<feColorMatrix in="SourceAlpha" type="matrix" values="0 0 0 0 0 0 0 0 0 0 0 0 0 0 0 0 0 0 127 0" result="hardAlpha"/>
<feOffset dy="4"/>
<feGaussianBlur stdDeviation="2"/>
<feComposite in2="hardAlpha" operator="out"/>
<feColorMatrix type="matrix" values="0 0 0 0 0 0 0 0 0 0 0 0 0 0 0 0 0 0 0.25 0"/>
<feBlend mode="normal" in2="BackgroundImageFix" result="effect1_dropShadow_2_60"/>
<feBlend mode="normal" in="SourceGraphic" in2="effect1_dropShadow_2_60" result="shape"/>
</filter>
</defs>
</svg>
