<?xml version="1.0" encoding="UTF-8"?>
<svg id="Camada_1" data-name="Camada 1" xmlns="http://www.w3.org/2000/svg" viewBox="0 0 622.49 913.27">
  <defs>
    <style>
      .cls-1 {
        fill: #652a00;
      }

      .cls-2 {
        fill: #783200;
      }

      .cls-3 {
        fill: rgba(182, 76, 0, .78);
      }

      .cls-4 {
        fill: rgba(70, 29, 0, .55);
      }

      .cls-5 {
        fill: none;
        stroke: #000;
        stroke-width: 5px;
      }
    </style>
  </defs>
  <g>
    <path class="cls-2" d="m174.5,777.5v-19.5l12.5-20.5,56.5-10,61-7.5,43,7.5,44.5,10,35.5,20.5-29.5,62.5-50.5,32-43,19-91-51-39-43Z"/>
    <path d="m174.5,777.5v-19.5l12.5-20.5,56.5-10,61-7.5,43,7.5,44.5,10,35.5,20.5-29.5,62.5-50.5,32-43,19-91-51-39-43Z"/>
    <path class="cls-5" d="m174.5,777.5v-19.5l12.5-20.5,56.5-10,61-7.5,43,7.5,44.5,10,35.5,20.5-29.5,62.5-50.5,32-43,19-91-51-39-43Z"/>
  </g>
  <g>
    <path class="cls-2" d="m296.5,846l-38-41-8-48v-25.5l46-13.5,52.5,13.5v54l-5.62,19.5c-6.88,20.5-24.67,45-23.88,41s0,0-23,0Z"/>
    <path class="cls-5" d="m258.5,805s25.19,35.41,38,41c21.08,9.2,23.8-4,23,0s17-20.5,23.88-41m-84.88,0l-8-48m8,48c0-13.4,46.88-26,46.88-26,0,0,38,14.49,38,26m0,0l5.62-19.5v-27m-98.5-1.5c0-6.38-3.82-20.4,0-25.5,7.18-9.59,34.02-13.3,46-13.5,13.55-.23,44.2,2.79,52.5,13.5,4.14,5.33,0,20.25,0,27m-98.5-1.5s39.13-17.02,53-16.5c12.22.46,45.5,18,45.5,18"/>
  </g>
  <g>
    <path class="cls-2" d="m181,815.5l-33,27.5,6-39,18.42-31.5,46.08,52,51.5,28,38,17,33.5-17,52.5-37,32.5-59.5,25.5,35,9.5,46-44-33,9,58.5-44-19.5-13.5,19.5v45l-27.5-55-33.5,17-38-17-19.5,60-7-43-14.5-26.5-48,35v-62.5Z"/>
    <path class="cls-5" d="m172.42,756v16.5m97.58,80l-19.5,60-7-43-14.5-26.5-48,35v-62.5l-33,27.5,6-39,18.42-31.5m97.58,80l-51.5-28-46.08-52m97.58,80l38,17,33.5-17m0,0l27.5,55v-45l13.5-19.5,44,19.5-9-58.5,44,33-9.5-46-25.5-35-32.5,59.5-52.5,37Z"/>
  </g>
  <g>
    <path class="cls-2" d="m477,715.75l24.5,75-24.5-26-16-10.5h-36.5l-29.5-19.5-49-11-46.5-8-56,8-58.5,11-19.5,19.5-30.5,10.5-27,26,11.5-56,10.5-25.5,5-12.5,41-19,62.5-8,54-17.5,53.5,17.5,123.5,34,7.5,12Z"/>
    <path class="cls-5" d="m238.5,669.75l54-17.5,53.5,17.5m-107.5,0l-62.5,8-41,19-5,12.5-10.5,25.5-11.5,56,27-26,30.5-10.5,19.5-19.5,58.5-11m-5-54l-9.5,34,14.5,20m102.5-54l123.5,34,7.5,12,24.5,75-24.5-26-16-10.5h-36.5l-29.5-19.5-49-11m0-54l10.5,27-10.5,27m0,0l-46.5-8-56,8"/>
  </g>
  <g>
    <path class="cls-2" d="m495,649l51.5,100.5-29-30-55-20-60.5-7.5-53-17.5-48-13.5-56,8-58.5,11-26,5.5-34,14-31.5,36.5,8.5-67,10-20,18-18.5,46-7.5,62.5-8,61-14,57,14,113,15.5,24,18.5Z"/>
    <path class="cls-5" d="m240,615l61-14,57,14m-118,0l-62.5,8-46,7.5-18,18.5-10,20-8.5,67,31.5-36.5,34-14,26-5.5,58.5-11m-5-54l-9.5,34,14.5,20m113-54l113,15.5,24,18.5,51.5,100.5-29-30-55-20-60.5-7.5-53-17.5m9-59.5v27l-9,32.5m0,0l-48-13.5-56,8"/>
  </g>
  <g>
    <path class="cls-2" d="m509.5,579l44,89-23.5-20.5-59.5-20.5-115.5-16.5-54.5-8-56,8-58.5,11-45,5.5-38,15.5-35,49v-49l6.5-40,49.5-30.5,53-7.5,50-8,73.5-14,54.5,14,115.5,15.5,39,7Z"/>
    <path class="cls-5" d="m227,556.5l73.5-14,54.5,14m-128,0l-50,8-53,7.5-49.5,30.5-6.5,40v49l35-49,38-15.5,45-5.5,58.5-11m-17.5-54l3,34,14.5,20m110.5-54l115.5,15.5,39,7,44,89-23.5-20.5-59.5-20.5-115.5-16.5m0-54l11,27.5-11,26.5m0,0l-54.5-8-56,8"/>
  </g>
  <g>
    <path class="cls-2" d="m523,518.5l44,97.5-37-41.5-67.5-6-102.5-15-58.5-11-61,16.5-69.5,9.5-87.5,22.5-39,62.5,13.5-73.5,20.5-37.5,39.5-38.5,53-7.5,50-8,73.5-14,74.5,14,101,22.5,53,7.5Z"/>
    <path class="cls-5" d="m221,488.5l73.5-14,74.5,14m-148,0l-50,8-53,7.5-39.5,38.5-20.5,37.5-13.5,73.5,39-62.5,87.5-22.5,69.5-9.5m-19.5-70.5l3,34,16.5,36.5m128.5-70.5l101,22.5,53,7.5,44,97.5-37-41.5-67.5-6-102.5-15m9-65v30l-9,35m0,0l-58.5-11-61,16.5"/>
  </g>
  <g>
    <path class="cls-2" d="m520,434l61,113.5-61-44h-67l-89-13.5-71.5-15.5-68.5,15.5-56,6.5-53,7-79.5,69.5,14-83,15.5-37,50-13,53-13.5,50-22.5h74.5l64.5,8h18l92,14.5,53,7.5Z"/>
    <path class="cls-5" d="m218,404h74.5l64.5,8h18m-157-8l-50,22.5-53,13.5-50,13-15.5,37-14,83,79.5-69.5,53-7,56-6.5m-12.18-72.53s-4.21,25.39-3.5,36.32,14.5,31.66,14.5,43m152.18-84.79l92,14.5,53,7.5,61,113.5-61-44h-67l-89-13.5m9.82-71.21c0,11.58,7.56,34.6,5.5,46-1.6,8.86-16.5,23-16.5,32m0,0c0-18.29-53.21-15.58-71.5-15.5-17.56.08-67.32,8.71-67.32,8.71"/>
  </g>
  <g>
    <path class="cls-2" d="m524,361l55.5,91-55.5-21.5-75.5-7-76.5-6.5-74.5-14-84.5,7.68-41,12.82-53,12-56.5,16.5-34,22.5,25-57.5,9-24.5,56.5-25.5,94-12.32,84.5-6.18h82l91.5,5,53,7.5Z"/>
    <path class="cls-5" d="m213,354.68v56m0-56l-94,12.32-56.5,25.5-9,24.5-25,57.5,34-22.5,56.5-16.5,53-12,41-12.82m0-56l84.5-6.18h82m0,0l-7.5,68.5m7.5-68.5l91.5,5,53,7.5,55.5,91-55.5-21.5-75.5-7-76.5-6.5m0,0s-56.75-6.31-75.68-7.21c-21.19-1.01-84.5-13.53-84.5,7.68"/>
  </g>
  <g>
    <path class="cls-2" d="m28.5,409l30.5-97.5,55.5-15,103-9.5,76-5,81,5h89l45,9.5,43,74.5-66.5-18.5H217.5l-103,12.5-86,44Z"/>
    <path class="cls-5" d="m217.5,287l76-5,81,5m-157,0l-103,9.5-55.5,15-30.5,97.5,86-44,103-12.5m0-65.5c0,8.63-6.17,23.84-6.5,32s6.5,24.97,6.5,33.5m157-65.5h89l45,9.5,43,74.5-66.5-18.5h-110.5m0-65.5c0,8.14,5.97,23.86,6,32,.03,8.51-6,33.5-6,33.5m0,0h-157"/>
  </g>
  <g>
    <path class="cls-2" d="m24,416L2.5,704v-288l9.5-131s13.69-75.94,22.5-100c6.88-18.8,24.84-55.1,37-71,16.23-21.22,55.66-58.64,78.5-72.5C182.19,21.96,257.84,2.71,295.5,2.5c31.74-.18,95.17,16.24,123,31.5,21.38,11.72,60.87,41.78,76.5,60.5,21.97,26.31,53.24,88.62,64.5,121,15.18,43.68,33,182,33,182l27.5,306.5-47-306.5-23.5-64.5-33-38.5-231-9.5-226.5,24.5-35,106.5Z"/>
    <path class="cls-5" d="m24,416L2.5,704v-288l9.5-131s13.69-75.94,22.5-100c6.88-18.8,24.84-55.1,37-71,16.23-21.22,55.66-58.64,78.5-72.5C182.19,21.96,257.84,2.71,295.5,2.5c31.74-.18,95.17,16.24,123,31.5,21.38,11.72,60.87,41.78,76.5,60.5,21.97,26.31,53.24,88.62,64.5,121,15.18,43.68,33,182,33,182l27.5,306.5-47-306.5-23.5-64.5-33-38.5-231-9.5-226.5,24.5-35,106.5Z"/>
  </g>
  <g>
    <path class="cls-4" d="m78.5,206.5c-16.91,38.53-54.12,69.43-30.5,90,13.58,11.83,47.69-27.31,65.5-30,12.46-1.89,37.57,4.43,50,6.5s36.56,8.74,49,10c41.29,4.17,125.77,10.18,166,0,8.4-2.13,22.1-14.37,30.5-16.5,10.66-2.7,33.04-.98,44,0,9.11.82,27.05,4.63,36,6.5,10.57,2.21,34.62,17.87,42,10,13.68-14.59-16.29-57.84-23.5-76.5-5.82-15.07-18.9-44.82-27.5-58.5-8.22-13.09-26.94-38.33-39-48-15.7-12.59-52.8-29.97-72-36-20.61-6.47-63.92-13.54-85.5-12.5-18.26.88-54.18,10.33-71,17.5-13.34,5.68-37.12,22.69-49,31-12.93,9.04-39.9,26.38-50,38.5-12.24,14.69-27.32,50.49-35,68Z" shape-rendering="crispEdges"/>
    <path class="cls-5" d="m78.5,206.5c-16.91,38.53-54.12,69.43-30.5,90,13.58,11.83,47.69-27.31,65.5-30,12.46-1.89,37.57,4.43,50,6.5s36.56,8.74,49,10c41.29,4.17,125.77,10.18,166,0,8.4-2.13,22.1-14.37,30.5-16.5,10.66-2.7,33.04-.98,44,0,9.11.82,27.05,4.63,36,6.5,10.57,2.21,34.53,17.79,42,10,13.86-14.43-16.29-57.84-23.5-76.5-5.82-15.07-18.74-44.92-27.5-58.5-8.38-13-26.94-38.33-39-48-15.7-12.59-72-36-72-36,0,0-63.9-12.97-85.5-12.5-18.28.4-54.18,10.33-71,17.5-13.34,5.68-37.34,22.38-49,31-12.68,9.38-39.81,26.45-50,38.5-12.35,14.6-27.32,50.49-35,68Z" shape-rendering="crispEdges"/>
  </g>
  <g>
    <path class="cls-3" d="m213.5,224.5v57.5h162v-69.5l-9.5-47-21.5-41-56-19.5-51.5,19.5-23.5,54v46Z" shape-rendering="crispEdges"/>
    <path class="cls-5" d="m213.5,224.5v57.5h162s1.73-52.21,0-69.5c-1.19-11.93-5.49-35.7-9.5-47-3.87-10.91-12.73-33.44-21.5-41-11.23-9.68-41.18-19.7-56-19.5-13.77.18-41.53,10-51.5,19.5-10.66,10.16-20.5,39.59-23.5,54-2.34,11.26,0,46,0,46Z" shape-rendering="crispEdges"/>
  </g>
  <ellipse class="cls-1" cx="175.5" cy="164" rx="27" ry="10.5"/>
  <ellipse class="cls-1" cx="421.5" cy="164" rx="27" ry="10.5"/>
</svg>