<svg width="631" height="713" viewBox="0 0 631 713" fill="none" xmlns="http://www.w3.org/2000/svg">
<g filter="url(#filter0_d_2_39)">
<path d="M28.4999 416.5L6.99994 704.5V416.5L16.4999 285.5L39 185.5L76 114.5L154.5 42.0003L300 3.00024L423 34.5003L499.5 95.0003L564 216L597 398L624.5 704.5L577.5 398L554 333.5L521 295L290 285.5L63.5 310L28.4999 416.5Z" fill="#783200"/>
<path d="M28.4999 416.5L6.99994 704.5V416.5L16.4999 285.5L39 185.5L76 114.5L154.5 42.0003L300 3.00024L423 34.5003L499.5 95.0003L564 216L597 398L624.5 704.5L577.5 398L554 333.5L521 295L290 285.5L63.5 310L28.4999 416.5Z" stroke="black" stroke-width="5"/>
</g>
<defs>
<filter id="filter0_d_2_39" x="0.499939" y="0.415894" width="630.49" height="712.464" filterUnits="userSpaceOnUse" color-interpolation-filters="sRGB">
<feFlood flood-opacity="0" result="BackgroundImageFix"/>
<feColorMatrix in="SourceAlpha" type="matrix" values="0 0 0 0 0 0 0 0 0 0 0 0 0 0 0 0 0 0 127 0" result="hardAlpha"/>
<feOffset dy="4"/>
<feGaussianBlur stdDeviation="2"/>
<feComposite in2="hardAlpha" operator="out"/>
<feColorMatrix type="matrix" values="0 0 0 0 0 0 0 0 0 0 0 0 0 0 0 0 0 0 0.25 0"/>
<feBlend mode="normal" in2="BackgroundImageFix" result="effect1_dropShadow_2_39"/>
<feBlend mode="normal" in="SourceGraphic" in2="effect1_dropShadow_2_39" result="shape"/>
</filter>
</defs>
</svg>
